<?xml version="1.0" encoding="UTF-8"?>
<svg xmlns="http://www.w3.org/2000/svg" width="300" height="400" viewBox="0 0 300 400">
  <!-- Game Boy Mascot -->
  
  <!-- Body -->
  <rect x="100" y="150" width="100" height="150" rx="10" ry="10" fill="#0a5c36"/>
  
  <!-- Screen -->
  <rect x="115" y="165" width="70" height="60" rx="5" ry="5" fill="#FFFFFF"/>
  
  <!-- Face -->
  <circle cx="135" cy="190" r="8" fill="#000000"/>
  <circle cx="165" cy="190" r="8" fill="#000000"/>
  <path d="M135,210 Q150,225 165,210" stroke="#000000" stroke-width="3" fill="none"/>
  
  <!-- Controls -->
  <rect x="125" y="240" width="20" height="5" fill="#000000"/>
  <rect x="155" y="240" width="20" height="5" fill="#000000"/>
  
  <!-- D-Pad -->
  <rect x="115" y="265" width="30" height="5" fill="#8CC63F"/>
  <rect x="127.5" y="252.5" width="5" height="30" fill="#8CC63F"/>
  
  <!-- Buttons -->
  <circle cx="170" cy="265" r="8" fill="#FFD700"/>
  <circle cx="170" cy="265" r="5" fill="#FFD700"/>
  <circle cx="185" cy="280" r="8" fill="#0000AA"/>
  <circle cx="185" cy="280" r="5" fill="#0000AA"/>
  
  <!-- Arms and Legs -->
  <path d="M100,180 C80,180 70,200 70,220" stroke="#000000" stroke-width="10" fill="none"/>
  <path d="M200,180 C220,180 230,200 230,220" stroke="#000000" stroke-width="10" fill="none"/>
  <path d="M120,300 L120,350" stroke="#000000" stroke-width="10" fill="none"/>
  <path d="M180,300 L180,350" stroke="#000000" stroke-width="10" fill="none"/>
</svg>
