<?xml version="1.0" encoding="UTF-8"?>
<svg xmlns="http://www.w3.org/2000/svg" width="200" height="200" viewBox="0 0 200 200">
  <!-- Light Bulb with Gear -->
  <g id="light-bulb">
    <!-- Bulb -->
    <circle cx="100" cy="80" r="50" fill="#FFD700"/>
    <circle cx="100" cy="80" r="40" fill="#FFD700"/>
    
    <!-- Light Rays -->
    <path d="M100,20 L100,5" stroke="#FFD700" stroke-width="4" fill="none"/>
    <path d="M140,40 L150,25" stroke="#FFD700" stroke-width="4" fill="none"/>
    <path d="M160,80 L175,80" stroke="#FFD700" stroke-width="4" fill="none"/>
    <path d="M140,120 L150,135" stroke="#FFD700" stroke-width="4" fill="none"/>
    <path d="M60,40 L50,25" stroke="#FFD700" stroke-width="4" fill="none"/>
    <path d="M40,80 L25,80" stroke="#FFD700" stroke-width="4" fill="none"/>
    <path d="M60,120 L50,135" stroke="#FFD700" stroke-width="4" fill="none"/>
    
    <!-- Gear -->
    <circle cx="100" cy="80" r="25" fill="#FFFFFF"/>
    <circle cx="100" cy="80" r="15" fill="#333333"/>
    
    <!-- Gear Teeth -->
    <rect x="97" y="55" width="6" height="10" fill="#333333"/>
    <rect x="97" y="95" width="6" height="10" fill="#333333"/>
    <rect x="75" y="77" width="10" height="6" fill="#333333"/>
    <rect x="115" y="77" width="10" height="6" fill="#333333"/>
    
    <!-- Diagonal Teeth -->
    <rect x="82" y="62" width="8" height="8" transform="rotate(45 86 66)" fill="#333333"/>
    <rect x="110" y="62" width="8" height="8" transform="rotate(45 114 66)" fill="#333333"/>
    <rect x="82" y="90" width="8" height="8" transform="rotate(45 86 94)" fill="#333333"/>
    <rect x="110" y="90" width="8" height="8" transform="rotate(45 114 94)" fill="#333333"/>
  </g>
</svg>
